<?xml version="1.0" encoding="UTF-8" standalone="no"?>
<!-- Created with Inkscape (http://www.inkscape.org/) -->

<svg
   xmlns:dc="http://purl.org/dc/elements/1.1/"
   xmlns:cc="http://creativecommons.org/ns#"
   xmlns:rdf="http://www.w3.org/1999/02/22-rdf-syntax-ns#"
   xmlns:svg="http://www.w3.org/2000/svg"
   xmlns="http://www.w3.org/2000/svg"
   xmlns:sodipodi="http://sodipodi.sourceforge.net/DTD/sodipodi-0.dtd"
   xmlns:inkscape="http://www.inkscape.org/namespaces/inkscape"
   width="125.73461mm"
   height="125.73461mm"
   viewBox="0 0 125.73461 125.73461"
   version="1.1"
   id="svg8"
   inkscape:version="0.92.1 r15371"
   sodipodi:docname="LanyuCirculoRelleno.svg"
   inkscape:export-filename="C:\Users\Isma\Desktop\lanyuHD.png"
   inkscape:export-xdpi="314.47717"
   inkscape:export-ydpi="314.47717">
  <defs
     id="defs2" />
  <sodipodi:namedview
     id="base"
     pagecolor="#ffffff"
     bordercolor="#666666"
     borderopacity="1.0"
     inkscape:pageopacity="0.0"
     inkscape:pageshadow="2"
     inkscape:zoom="0.49497475"
     inkscape:cx="-501.37099"
     inkscape:cy="318.36748"
     inkscape:document-units="mm"
     inkscape:current-layer="layer1"
     showgrid="false"
     inkscape:window-width="1920"
     inkscape:window-height="1018"
     inkscape:window-x="-8"
     inkscape:window-y="-8"
     inkscape:window-maximized="1" />
  <metadata
     id="metadata5">
    <rdf:RDF>
      <cc:Work
         rdf:about="">
        <dc:format>image/svg+xml</dc:format>
        <dc:type
           rdf:resource="http://purl.org/dc/dcmitype/StillImage" />
        <dc:title />
      </cc:Work>
    </rdf:RDF>
  </metadata>
  <g
     inkscape:label="Capa 1"
     inkscape:groupmode="layer"
     id="layer1"
     transform="translate(-11.166348,-14.16988)">
    <path
       style="opacity:1;fill:#000000;fill-opacity:1;stroke:none;stroke-width:0.75149542;stroke-miterlimit:4;stroke-dasharray:none;stroke-opacity:1"
       id="path4698"
       sodipodi:type="arc"
       sodipodi:cx="74.033653"
       sodipodi:cy="77.037186"
       sodipodi:rx="62.867306"
       sodipodi:ry="62.867306"
       sodipodi:start="0.050225165"
       sodipodi:end="0.050212424"
       sodipodi:open="true"
       d="M 136.82168,80.193379 A 62.867306,62.867306 0 0 1 70.87766,139.82522 62.867306,62.867306 0 0 1 11.245604,73.881392 62.867306,62.867306 0 0 1 77.189247,14.249127 62.867306,62.867306 0 0 1 136.82172,80.192579" />
    <path
       style="fill:#ffffff;fill-opacity:1;stroke:#ffffff;stroke-width:0.26458332px;stroke-linecap:butt;stroke-linejoin:miter;stroke-opacity:1"
       d="m 123.64726,45.049935 c -6.42687,13.24271 -7.64803,18.01943 -14.91913,28.8431 -16.371892,-9.42289 -20.484842,-18.24018 -26.665922,-28.82082 10.63352,24.73648 16.42046,26.02008 24.022092,32.37313 -7.428922,11.13202 -19.844032,27.941345 -39.415762,27.941345 -9.6638,0 -22.14232,-4.12049 -30.38817,-17.007905 -6.22064,-9.72222 -7.20925,-14.94207 -11.8384,-43.31195 1.12038,18.61205 1.82973,34.63604 7.9798,43.93835 -1.79034,8.55289 -1.4122,10.34039 -8.01998,19.966445 3.39767,-2.23207 6.99583,-6.52668 10.82955,-15.982195 5.81828,9.218895 19.60882,15.923435 29.07286,15.923435 40.603072,0 54.848482,-47.909675 59.343062,-63.862935 z"
       id="path4485-4-0-7-3"
       inkscape:connector-curvature="0"
       sodipodi:nodetypes="ccccssccccsc"
       inkscape:export-filename="C:\Users\Isma\Desktop\Lanyu Marvel Cuadrado 900.png"
       inkscape:export-xdpi="229.77357"
       inkscape:export-ydpi="229.77357" />
  </g>
</svg>
